<svg width="26" height="28" viewBox="0 0 26 28" fill="none" xmlns="http://www.w3.org/2000/svg">
<path d="M13.2071 9.57736C10.8586 9.57736 8.94216 11.5648 8.94216 14.0002C8.94216 16.4356 10.8586 18.4231 13.2071 18.4231C15.5555 18.4231 17.472 16.4356 17.472 14.0002C17.472 11.5648 15.5555 9.57736 13.2071 9.57736ZM25.9985 14.0002C25.9985 12.1687 26.0145 10.3538 25.9154 8.52557C25.8162 6.40207 25.349 4.51746 23.8517 2.96465C22.3511 1.40852 20.537 0.927416 18.4894 0.824559C16.7233 0.721702 14.9732 0.738292 13.2103 0.738292C11.4441 0.738292 9.69404 0.721702 7.93113 0.824559C5.88347 0.927416 4.06617 1.41184 2.56882 2.96465C1.06827 4.52078 0.604342 6.40207 0.505158 8.52557C0.405975 10.3571 0.421972 12.172 0.421972 14.0002C0.421972 15.8284 0.405975 17.6467 0.505158 19.4749C0.604342 21.5984 1.07146 23.483 2.56882 25.0358C4.06937 26.5919 5.88347 27.073 7.93113 27.1759C9.69724 27.2787 11.4473 27.2621 13.2103 27.2621C14.9764 27.2621 16.7265 27.2787 18.4894 27.1759C20.537 27.073 22.3543 26.5886 23.8517 25.0358C25.3522 23.4797 25.8162 21.5984 25.9154 19.4749C26.0177 17.6467 25.9985 15.8317 25.9985 14.0002ZM13.2071 20.8054C9.57566 20.8054 6.64494 17.7661 6.64494 14.0002C6.64494 10.2343 9.57566 7.19506 13.2071 7.19506C16.8385 7.19506 19.7692 10.2343 19.7692 14.0002C19.7692 17.7661 16.8385 20.8054 13.2071 20.8054ZM20.0379 8.50566C19.1901 8.50566 18.5054 7.79561 18.5054 6.91635C18.5054 6.03709 19.1901 5.32704 20.0379 5.32704C20.8858 5.32704 21.5705 6.03709 21.5705 6.91635C21.5707 7.12514 21.5313 7.33192 21.4543 7.52486C21.3774 7.7178 21.2645 7.89311 21.1222 8.04075C20.9798 8.18838 20.8108 8.30544 20.6247 8.38521C20.4387 8.46499 20.2393 8.50592 20.0379 8.50566Z" fill="white"/>
</svg>
