<svg width="27" height="28" viewBox="0 0 27 28" fill="none" xmlns="http://www.w3.org/2000/svg">
<path d="M18.8681 0.5C25.9927 0.5 26.55 1.07645 26.55 8.44678V19.5526C26.55 26.9229 25.9927 27.5 18.8681 27.5H8.13183C1.00784 27.5 0.449951 26.9229 0.449951 19.5532V8.44678C0.449951 1.07645 1.00784 0.5 8.13183 0.5H18.8681ZM20.5026 12.4725V9.64018C20.5026 9.64018 19.0553 9.6476 17.8332 8.4893C16.8062 7.51595 16.7207 5.69278 16.7207 5.69278H13.9828C13.9828 5.69278 13.9828 15.3574 13.9828 16.8978C13.9828 18.4375 12.6876 19.2346 11.7584 19.2346C11.0583 19.2346 9.46554 18.667 9.46554 16.8802C9.46554 15.0051 11.2965 14.5258 11.7754 14.5258C12.2543 14.5258 12.4429 14.6318 12.4429 14.6318V11.6422C12.4429 11.6422 11.9979 11.5984 11.673 11.5869C8.90961 11.4904 6.62521 14.0554 6.62521 16.8796C6.62521 19.2657 8.42937 22.1547 11.7245 22.1547C15.2343 22.1547 16.8408 19.1266 16.8408 16.8971C16.8408 15.2683 16.8408 11.3392 16.8408 11.3392C16.8408 11.3392 17.8502 11.923 18.6717 12.189C19.4932 12.4549 20.5026 12.4725 20.5026 12.4725Z" fill="white"/>
</svg>
