<svg width="28" height="24" viewBox="0 0 28 24" fill="none" xmlns="http://www.w3.org/2000/svg">
<path d="M28 2.84134C27.2423 4.05527 26.2832 5.12216 25.1783 5.97739C25.1886 6.23765 25.1944 6.49853 25.1944 6.76125C25.1944 14.7678 19.5109 24 9.11403 24C5.92161 24 1.76147 22.8014 0.449951 21.2786C0.893056 21.3352 1.34305 21.3636 1.79878 21.3636C4.44765 21.3636 6.88473 20.3945 8.81844 18.7696C6.3452 18.7209 4.25767 16.968 3.53848 14.5611C4.66347 14.7506 6.09093 14.4565 6.09093 14.4565C6.09093 14.4565 1.67136 13.6431 1.55714 8.43972C2.8348 9.23404 4.11705 9.19712 4.11705 9.19712C4.11705 9.19712 1.56804 7.51496 1.60363 4.15495C1.62487 2.17315 2.36759 1.10749 2.36759 1.10749C7.19697 7.48235 14.018 7.43867 14.018 7.43867C14.018 7.43867 13.8717 6.5336 13.8717 6.05861C13.8717 2.71336 16.4017 0 19.5236 0C21.149 0 22.6178 0.735868 23.6487 1.91412C24.9372 1.64155 26.1472 1.13703 27.2389 0.442997C26.7458 2.55954 24.7541 3.79501 24.7541 3.79501C24.7541 3.79501 26.4583 3.59259 28 2.84134Z" fill="white"/>
</svg>
